<svg width="237" height="48" viewBox="0 0 237 48" fill="none" xmlns="http://www.w3.org/2000/svg">
<path fill-rule="evenodd" clip-rule="evenodd" d="M40.1749 41.7308C35.9085 45.625 30.2316 48 24 48C10.7452 48 0 37.2548 0 24C0 10.7452 10.7452 0 24 0C32.1322 0 39.3197 4.04461 43.6606 10.2319L29.5105 21.6984C28.2726 21.2044 26.9219 20.9327 25.5078 20.9327C19.5406 20.9327 14.7032 25.7701 14.7032 31.7374C14.7032 37.7046 19.5406 42.542 25.5078 42.542C29.1593 42.542 32.3876 40.7307 34.3435 37.9575L40.1749 41.7308Z" fill="url(#paint0_linear_267_2)" style=""/>
<path d="M65.4831 34.836C63.9898 34.836 62.5991 34.5653 61.3111 34.024C60.0418 33.4827 58.9311 32.7267 57.9791 31.756C57.0271 30.7853 56.2805 29.6467 55.7391 28.34C55.2165 27.0333 54.9551 25.6053 54.9551 24.056C54.9551 22.5067 55.2165 21.0787 55.7391 19.772C56.2618 18.4467 56.9991 17.308 57.9511 16.356C58.9031 15.3853 60.0138 14.6387 61.2831 14.116C62.5711 13.5747 63.9711 13.304 65.4831 13.304C66.9951 13.304 68.3485 13.556 69.5431 14.06C70.7565 14.564 71.7831 15.236 72.6231 16.076C73.4631 16.916 74.0605 17.8493 74.4151 18.876L70.5791 20.724C70.2245 19.716 69.5991 18.8853 68.7031 18.232C67.8258 17.56 66.7525 17.224 65.4831 17.224C64.2511 17.224 63.1685 17.5133 62.2351 18.092C61.3018 18.6707 60.5738 19.4733 60.0511 20.5C59.5471 21.508 59.2951 22.6933 59.2951 24.056C59.2951 25.4187 59.5471 26.6133 60.0511 27.64C60.5738 28.6667 61.3018 29.4693 62.2351 30.048C63.1685 30.6267 64.2511 30.916 65.4831 30.916C66.7525 30.916 67.8258 30.5893 68.7031 29.936C69.5991 29.264 70.2245 28.424 70.5791 27.416L74.4151 29.264C74.0605 30.2907 73.4631 31.224 72.6231 32.064C71.7831 32.904 70.7565 33.576 69.5431 34.08C68.3485 34.584 66.9951 34.836 65.4831 34.836ZM76.8921 34.5V13.304H81.0921V34.5H76.8921ZM91.5295 34.836C89.9055 34.836 88.4962 34.4813 87.3015 33.772C86.1068 33.044 85.1828 32.0733 84.5295 30.86C83.8762 29.6467 83.5495 28.3027 83.5495 26.828C83.5495 25.2973 83.8855 23.9347 84.5575 22.74C85.2482 21.5453 86.1722 20.6027 87.3295 19.912C88.4868 19.2213 89.7935 18.876 91.2495 18.876C92.4628 18.876 93.5362 19.072 94.4695 19.464C95.4028 19.8373 96.1868 20.3693 96.8215 21.06C97.4748 21.7507 97.9695 22.5533 98.3055 23.468C98.6415 24.364 98.8095 25.344 98.8095 26.408C98.8095 26.7067 98.7908 27.0053 98.7535 27.304C98.7348 27.584 98.6882 27.8267 98.6135 28.032H87.1615V24.952H96.2335L94.2455 26.408C94.4322 25.6053 94.4228 24.896 94.2175 24.28C94.0122 23.6453 93.6482 23.1507 93.1255 22.796C92.6215 22.4227 91.9962 22.236 91.2495 22.236C90.5215 22.236 89.8962 22.4133 89.3735 22.768C88.8508 23.1227 88.4588 23.6453 88.1975 24.336C87.9362 25.0267 87.8335 25.8667 87.8895 26.856C87.8148 27.7147 87.9175 28.4707 88.1975 29.124C88.4775 29.7773 88.9068 30.2907 89.4855 30.664C90.0642 31.0187 90.7642 31.196 91.5855 31.196C92.3322 31.196 92.9668 31.0467 93.4895 30.748C94.0308 30.4493 94.4508 30.0387 94.7495 29.516L98.1095 31.112C97.8108 31.8587 97.3348 32.512 96.6815 33.072C96.0468 33.632 95.2908 34.0707 94.4135 34.388C93.5362 34.6867 92.5748 34.836 91.5295 34.836ZM101.283 34.5V19.212H105.203V22.88L104.923 22.348C105.259 21.06 105.809 20.192 106.575 19.744C107.359 19.2773 108.283 19.044 109.347 19.044H110.243V22.684H108.927C107.9 22.684 107.069 23.0013 106.435 23.636C105.8 24.252 105.483 25.1293 105.483 26.268V34.5H101.283ZM112.083 34.5V13.304H116.283V26.884L114.715 26.38L121.463 19.212H126.643L121.099 25.372L126.615 34.5H121.855L117.235 26.744L119.671 26.128L114.995 31.224L116.283 28.788V34.5H112.083ZM128.798 34.5V13.64H132.998L140.81 24H138.85L146.438 13.64H150.638V34.5H146.298V18.428L148.034 18.82L139.998 29.18H139.438L131.682 18.82L133.138 18.428V34.5H128.798ZM154.029 34.5V19.212H158.229V34.5H154.029ZM154.029 17.84V13.64H158.229V17.84H154.029ZM161.302 34.5V19.212H165.222V22.236L164.998 21.564C165.353 20.6493 165.922 19.9773 166.706 19.548C167.509 19.1 168.442 18.876 169.506 18.876C170.664 18.876 171.672 19.1187 172.53 19.604C173.408 20.0893 174.089 20.7707 174.574 21.648C175.06 22.5067 175.302 23.5147 175.302 24.672V34.5H171.102V25.568C171.102 24.9707 170.981 24.4573 170.738 24.028C170.514 23.5987 170.188 23.2627 169.758 23.02C169.348 22.7773 168.862 22.656 168.302 22.656C167.761 22.656 167.276 22.7773 166.846 23.02C166.417 23.2627 166.081 23.5987 165.838 24.028C165.614 24.4573 165.502 24.9707 165.502 25.568V34.5H161.302ZM183.552 34.836C182.32 34.836 181.265 34.5747 180.388 34.052C179.529 33.5107 178.876 32.764 178.428 31.812C177.98 30.86 177.756 29.7493 177.756 28.48V19.212H181.956V28.144C181.956 28.7227 182.068 29.236 182.292 29.684C182.535 30.1133 182.871 30.4493 183.3 30.692C183.729 30.9347 184.215 31.056 184.756 31.056C185.316 31.056 185.801 30.9347 186.212 30.692C186.641 30.4493 186.968 30.1133 187.192 29.684C187.435 29.236 187.556 28.7227 187.556 28.144V19.212H191.756V34.5H187.836V31.476L188.06 32.148C187.705 33.0627 187.127 33.744 186.324 34.192C185.54 34.6213 184.616 34.836 183.552 34.836ZM202.19 34.668C200.342 34.668 198.904 34.1733 197.878 33.184C196.87 32.176 196.366 30.776 196.366 28.984V22.852H193.79V19.212H193.93C194.714 19.212 195.311 19.016 195.722 18.624C196.151 18.232 196.366 17.644 196.366 16.86V15.74H200.566V19.212H204.15V22.852H200.566V28.704C200.566 29.2267 200.659 29.6653 200.846 30.02C201.032 30.356 201.322 30.608 201.714 30.776C202.106 30.944 202.591 31.028 203.17 31.028C203.3 31.028 203.45 31.0187 203.618 31C203.786 30.9813 203.963 30.9627 204.15 30.944V34.5C203.87 34.5373 203.552 34.5747 203.198 34.612C202.843 34.6493 202.507 34.668 202.19 34.668ZM213.975 34.836C212.351 34.836 210.941 34.4813 209.747 33.772C208.552 33.044 207.628 32.0733 206.975 30.86C206.321 29.6467 205.995 28.3027 205.995 26.828C205.995 25.2973 206.331 23.9347 207.003 22.74C207.693 21.5453 208.617 20.6027 209.775 19.912C210.932 19.2213 212.239 18.876 213.695 18.876C214.908 18.876 215.981 19.072 216.915 19.464C217.848 19.8373 218.632 20.3693 219.267 21.06C219.92 21.7507 220.415 22.5533 220.751 23.468C221.087 24.364 221.255 25.344 221.255 26.408C221.255 26.7067 221.236 27.0053 221.199 27.304C221.18 27.584 221.133 27.8267 221.059 28.032H209.607V24.952H218.679L216.691 26.408C216.877 25.6053 216.868 24.896 216.663 24.28C216.457 23.6453 216.093 23.1507 215.571 22.796C215.067 22.4227 214.441 22.236 213.695 22.236C212.967 22.236 212.341 22.4133 211.819 22.768C211.296 23.1227 210.904 23.6453 210.643 24.336C210.381 25.0267 210.279 25.8667 210.335 26.856C210.26 27.7147 210.363 28.4707 210.643 29.124C210.923 29.7773 211.352 30.2907 211.931 30.664C212.509 31.0187 213.209 31.196 214.031 31.196C214.777 31.196 215.412 31.0467 215.935 30.748C216.476 30.4493 216.896 30.0387 217.195 29.516L220.555 31.112C220.256 31.8587 219.78 32.512 219.127 33.072C218.492 33.632 217.736 34.0707 216.859 34.388C215.981 34.6867 215.02 34.836 213.975 34.836ZM229.72 34.836C228.04 34.836 226.575 34.444 225.324 33.66C224.092 32.8573 223.252 31.784 222.804 30.44L225.884 28.984C226.276 29.8053 226.808 30.4493 227.48 30.916C228.152 31.3827 228.899 31.616 229.72 31.616C230.317 31.616 230.775 31.4947 231.092 31.252C231.409 31.0093 231.568 30.6733 231.568 30.244C231.568 30.02 231.512 29.8333 231.4 29.684C231.288 29.516 231.12 29.3667 230.896 29.236C230.672 29.1053 230.392 28.9933 230.056 28.9L227.452 28.172C226.201 27.8173 225.24 27.248 224.568 26.464C223.896 25.6613 223.56 24.7187 223.56 23.636C223.56 22.684 223.803 21.8533 224.288 21.144C224.773 20.4347 225.455 19.884 226.332 19.492C227.209 19.0813 228.217 18.876 229.356 18.876C230.849 18.876 232.156 19.2307 233.276 19.94C234.415 20.6307 235.217 21.6107 235.684 22.88L232.576 24.336C232.352 23.7013 231.941 23.1973 231.344 22.824C230.765 22.432 230.103 22.236 229.356 22.236C228.815 22.236 228.385 22.348 228.068 22.572C227.769 22.796 227.62 23.104 227.62 23.496C227.62 23.7013 227.676 23.888 227.788 24.056C227.9 24.224 228.077 24.3733 228.32 24.504C228.581 24.6347 228.899 24.756 229.272 24.868L231.708 25.596C232.977 25.9693 233.948 26.5387 234.62 27.304C235.292 28.0507 235.628 28.9747 235.628 30.076C235.628 31.028 235.376 31.8587 234.872 32.568C234.387 33.2773 233.705 33.8373 232.828 34.248C231.951 34.64 230.915 34.836 229.72 34.836Z" fill="black" style="fill:black;fill-opacity:1;"/>
<defs>
<linearGradient id="paint0_linear_267_2" x1="14.7562" y1="16" x2="14.7562" y2="41" gradientUnits="userSpaceOnUse">
<stop stop-color="#2EC0FF" style="stop-color:#2EC0FF;stop-color:color(display-p3 0.1796 0.7539 1.0000);stop-opacity:1;"/>
<stop offset="1" stop-color="#FF63B9" style="stop-color:#FF63B9;stop-color:color(display-p3 1.0000 0.3871 0.7242);stop-opacity:1;"/>
</linearGradient>
</defs>
</svg>